<?xml version="1.0" standalone="no"?>
<!DOCTYPE svg PUBLIC "-//W3C//DTD SVG 20010904//EN"
 "http://www.w3.org/TR/2001/REC-SVG-20010904/DTD/svg10.dtd">
<svg version="1.0" xmlns="http://www.w3.org/2000/svg"
 width="64.000000pt" height="64.000000pt" viewBox="0 0 64.000000 64.000000"
 preserveAspectRatio="xMidYMid meet">

<g transform="translate(0.000000,64.000000) scale(0.100000,-0.100000)"
fill="#000000" stroke="none">
<path d="M0 320 l0 -320 320 0 320 0 0 320 0 320 -320 0 -320 0 0 -320z m335
224 c0 -46 -3 -59 -15 -59 -11 0 -16 13 -18 49 -4 56 3 79 21 73 8 -2 12 -24
12 -63z m-111 -18 c31 -52 32 -66 9 -66 -19 0 -63 67 -63 94 0 31 28 15 54
-28z m246 28 c0 -27 -44 -94 -62 -94 -24 0 -23 14 8 66 26 43 54 59 54 28z"/>
<path d="M310 545 c0 -30 5 -55 10 -55 6 0 10 25 10 55 0 30 -4 55 -10 55 -5
0 -10 -25 -10 -55z"/>
</g>
</svg>
